<?xml version="1.0" encoding="UTF-8"?>
<svg xmlns="http://www.w3.org/2000/svg" xmlns:xlink="http://www.w3.org/1999/xlink" viewBox="0 0 40 40" width="40px" height="40px">
<g id="surface21444565">
<path style="fill-rule:nonzero;fill:rgb(87.450981%,94.117647%,99.607843%);fill-opacity:1;stroke-width:10;stroke-linecap:butt;stroke-linejoin:round;stroke:rgb(0.784314%,18.82353%,26.666668%);stroke-opacity:1;stroke-miterlimit:10;" d="M 90.301423 103.84557 L 38.080027 156.066965 L 20.234458 138.221397 L 72.455854 86.000001 L 20.234458 33.778605 L 38.080027 15.933036 L 90.301423 68.154432 L 142.522819 15.933036 L 160.368387 33.778605 L 108.146992 86.000001 L 160.368387 138.221397 L 142.522819 156.066965 Z M 90.301423 103.84557 " transform="matrix(0.219767,0,0,0.219767,1.1,1.1)"/>
<path style="fill-rule:nonzero;fill:rgb(27.843139%,53.333336%,78.039217%);fill-opacity:1;stroke-width:10;stroke-linecap:butt;stroke-linejoin:round;stroke:rgb(0.784314%,18.82353%,26.666668%);stroke-opacity:1;stroke-miterlimit:10;" d="M 142.522819 18.97247 L 90.301423 71.193866 L 38.080027 18.97247 L 23.273892 33.778605 L 75.495288 86.000001 L 23.273892 138.221397 L 38.080027 153.027531 L 90.301423 100.806135 L 142.522819 153.027531 L 157.311178 138.221397 L 105.107557 86.000001 L 157.311178 33.778605 L 142.522819 18.97247 M 142.522819 12.893601 L 163.407822 33.778605 L 111.186426 86.000001 L 163.407822 138.221397 L 142.522819 159.1064 L 90.301423 106.885004 L 38.080027 159.1064 L 17.195023 138.221397 L 69.416419 86.000001 L 17.195023 33.778605 L 38.080027 12.893601 L 90.301423 65.114997 Z M 142.522819 12.893601 " transform="matrix(0.219767,0,0,0.219767,1.1,1.1)"/>
<path style=" stroke:none;fill-rule:nonzero;fill:rgb(87.450981%,94.117647%,99.607843%);fill-opacity:1;" d="M 20.945312 23.921875 L 9.46875 35.398438 L 5.546875 31.476562 L 17.023438 20 L 5.546875 8.523438 L 9.46875 4.601562 L 20.945312 16.078125 L 32.421875 4.601562 L 36.34375 8.523438 L 24.867188 20 L 36.34375 31.476562 L 32.421875 35.398438 Z M 20.945312 23.921875 "/>
<path style=" stroke:none;fill-rule:nonzero;fill:rgb(27.843139%,53.333336%,78.039217%);fill-opacity:1;" d="M 32.421875 5.269531 L 35.671875 8.523438 L 24.867188 19.332031 L 24.199219 20 L 24.867188 20.667969 L 35.671875 31.476562 L 32.421875 34.730469 L 20.945312 23.253906 L 9.46875 34.730469 L 6.214844 31.476562 L 17.691406 20 L 6.214844 8.523438 L 9.46875 5.269531 L 20.945312 16.746094 L 32.421875 5.269531 M 32.421875 3.933594 L 20.945312 15.410156 L 9.46875 3.933594 L 4.878906 8.523438 L 16.355469 20 L 4.878906 31.476562 L 9.46875 36.066406 L 20.945312 24.589844 L 32.421875 36.066406 L 37.011719 31.476562 L 25.535156 20 L 37.011719 8.523438 Z M 32.421875 3.933594 "/>
</g>
</svg>
